<mxfile host="app.diagrams.net" agent="Mozilla/5.0 (Windows NT 10.0; Win64; x64) AppleWebKit/537.36 (KHTML, like Gecko) Chrome/131.0.0.0 Safari/537.36" version="26.0.5">
  <diagram name="Page-1" id="TR5sEHsPR-A56FJRqs4F">
    <mxGraphModel dx="1434" dy="-362" grid="1" gridSize="10" guides="1" tooltips="1" connect="1" arrows="1" fold="1" page="1" pageScale="1" pageWidth="850" pageHeight="1100" math="0" shadow="0">
      <root>
        <mxCell id="0" />
        <mxCell id="1" parent="0" />
        <mxCell id="nJXbT9FgGnLmUq8w1Ts0-116" value="" style="shape=actor;whiteSpace=wrap;html=1;" vertex="1" parent="1">
          <mxGeometry x="70" y="1870" width="40" height="60" as="geometry" />
        </mxCell>
        <mxCell id="nJXbT9FgGnLmUq8w1Ts0-117" value="User Agent" style="rounded=1;whiteSpace=wrap;html=1;" vertex="1" parent="1">
          <mxGeometry x="180" y="1860" width="80" height="80" as="geometry" />
        </mxCell>
        <mxCell id="nJXbT9FgGnLmUq8w1Ts0-118" value="API" style="rounded=1;whiteSpace=wrap;html=1;" vertex="1" parent="1">
          <mxGeometry x="420" y="1860" width="80" height="80" as="geometry" />
        </mxCell>
        <mxCell id="nJXbT9FgGnLmUq8w1Ts0-119" value="LLM" style="rounded=1;whiteSpace=wrap;html=1;" vertex="1" parent="1">
          <mxGeometry x="720" y="1860" width="80" height="80" as="geometry" />
        </mxCell>
        <mxCell id="nJXbT9FgGnLmUq8w1Ts0-120" value="Service" style="rounded=1;whiteSpace=wrap;html=1;" vertex="1" parent="1">
          <mxGeometry x="545" y="1860" width="80" height="80" as="geometry" />
        </mxCell>
        <mxCell id="nJXbT9FgGnLmUq8w1Ts0-121" value="" style="endArrow=classic;html=1;rounded=0;" edge="1" parent="1" source="nJXbT9FgGnLmUq8w1Ts0-116" target="nJXbT9FgGnLmUq8w1Ts0-117">
          <mxGeometry width="50" height="50" relative="1" as="geometry">
            <mxPoint x="390" y="1960" as="sourcePoint" />
            <mxPoint x="440" y="1910" as="targetPoint" />
          </mxGeometry>
        </mxCell>
        <mxCell id="nJXbT9FgGnLmUq8w1Ts0-122" value="" style="endArrow=classic;html=1;rounded=0;" edge="1" parent="1" source="nJXbT9FgGnLmUq8w1Ts0-117" target="nJXbT9FgGnLmUq8w1Ts0-118">
          <mxGeometry width="50" height="50" relative="1" as="geometry">
            <mxPoint x="190" y="1910" as="sourcePoint" />
            <mxPoint x="230" y="1910" as="targetPoint" />
          </mxGeometry>
        </mxCell>
        <mxCell id="nJXbT9FgGnLmUq8w1Ts0-123" value="" style="endArrow=classic;html=1;rounded=0;" edge="1" parent="1" source="nJXbT9FgGnLmUq8w1Ts0-118" target="nJXbT9FgGnLmUq8w1Ts0-120">
          <mxGeometry width="50" height="50" relative="1" as="geometry">
            <mxPoint x="390" y="1910" as="sourcePoint" />
            <mxPoint x="430" y="1910" as="targetPoint" />
          </mxGeometry>
        </mxCell>
        <mxCell id="nJXbT9FgGnLmUq8w1Ts0-124" value="" style="endArrow=classic;html=1;rounded=0;" edge="1" parent="1" source="nJXbT9FgGnLmUq8w1Ts0-120" target="nJXbT9FgGnLmUq8w1Ts0-119">
          <mxGeometry width="50" height="50" relative="1" as="geometry">
            <mxPoint x="510" y="1910" as="sourcePoint" />
            <mxPoint x="555" y="1910" as="targetPoint" />
          </mxGeometry>
        </mxCell>
        <mxCell id="nJXbT9FgGnLmUq8w1Ts0-125" value="Memory" style="rounded=1;whiteSpace=wrap;html=1;dashed=1;" vertex="1" parent="1">
          <mxGeometry x="230" y="1960" width="80" height="60" as="geometry" />
        </mxCell>
        <mxCell id="nJXbT9FgGnLmUq8w1Ts0-126" value="" style="endArrow=classic;html=1;rounded=0;entryX=0.5;entryY=0;entryDx=0;entryDy=0;strokeColor=none;" edge="1" parent="1" source="nJXbT9FgGnLmUq8w1Ts0-117" target="nJXbT9FgGnLmUq8w1Ts0-125">
          <mxGeometry width="50" height="50" relative="1" as="geometry">
            <mxPoint x="150" y="1910" as="sourcePoint" />
            <mxPoint x="190" y="1910" as="targetPoint" />
          </mxGeometry>
        </mxCell>
        <mxCell id="nJXbT9FgGnLmUq8w1Ts0-127" value="" style="endArrow=classic;html=1;rounded=0;dashed=1;" edge="1" parent="1" source="nJXbT9FgGnLmUq8w1Ts0-117" target="nJXbT9FgGnLmUq8w1Ts0-125">
          <mxGeometry width="50" height="50" relative="1" as="geometry">
            <mxPoint x="150" y="1910" as="sourcePoint" />
            <mxPoint x="190" y="1910" as="targetPoint" />
          </mxGeometry>
        </mxCell>
        <mxCell id="nJXbT9FgGnLmUq8w1Ts0-128" value="Auth" style="rounded=1;whiteSpace=wrap;html=1;dashed=1;" vertex="1" parent="1">
          <mxGeometry x="420" y="1970" width="80" height="60" as="geometry" />
        </mxCell>
        <mxCell id="nJXbT9FgGnLmUq8w1Ts0-129" value="" style="endArrow=classic;html=1;rounded=0;dashed=1;" edge="1" parent="1" source="nJXbT9FgGnLmUq8w1Ts0-118" target="nJXbT9FgGnLmUq8w1Ts0-128">
          <mxGeometry width="50" height="50" relative="1" as="geometry">
            <mxPoint x="456.66666666666674" y="1920" as="sourcePoint" />
            <mxPoint x="430" y="1910" as="targetPoint" />
          </mxGeometry>
        </mxCell>
        <mxCell id="nJXbT9FgGnLmUq8w1Ts0-130" value="Quality" style="rounded=1;whiteSpace=wrap;html=1;dashed=1;fillColor=#dae8fc;strokeColor=#6c8ebf;" vertex="1" parent="1">
          <mxGeometry x="545" y="1970" width="80" height="60" as="geometry" />
        </mxCell>
        <mxCell id="nJXbT9FgGnLmUq8w1Ts0-131" value="" style="endArrow=classic;html=1;rounded=0;dashed=1;" edge="1" parent="1" source="nJXbT9FgGnLmUq8w1Ts0-120" target="nJXbT9FgGnLmUq8w1Ts0-130">
          <mxGeometry width="50" height="50" relative="1" as="geometry">
            <mxPoint x="550.0014285714285" y="1910" as="sourcePoint" />
            <mxPoint x="566.4300000000001" y="1920" as="targetPoint" />
          </mxGeometry>
        </mxCell>
        <mxCell id="nJXbT9FgGnLmUq8w1Ts0-132" value="Context" style="rounded=1;whiteSpace=wrap;html=1;dashed=1;" vertex="1" parent="1">
          <mxGeometry x="130" y="1960" width="80" height="60" as="geometry" />
        </mxCell>
        <mxCell id="nJXbT9FgGnLmUq8w1Ts0-133" value="" style="endArrow=classic;html=1;rounded=0;dashed=1;" edge="1" parent="1" source="nJXbT9FgGnLmUq8w1Ts0-117" target="nJXbT9FgGnLmUq8w1Ts0-132">
          <mxGeometry width="50" height="50" relative="1" as="geometry">
            <mxPoint x="230" y="1950" as="sourcePoint" />
            <mxPoint x="230" y="2030" as="targetPoint" />
          </mxGeometry>
        </mxCell>
        <mxCell id="nJXbT9FgGnLmUq8w1Ts0-134" value="API" style="rounded=1;whiteSpace=wrap;html=1;" vertex="1" parent="1">
          <mxGeometry x="420" y="1700" width="80" height="80" as="geometry" />
        </mxCell>
        <mxCell id="nJXbT9FgGnLmUq8w1Ts0-135" value="" style="endArrow=classic;html=1;rounded=0;edgeStyle=orthogonalEdgeStyle;" edge="1" parent="1" source="nJXbT9FgGnLmUq8w1Ts0-117" target="nJXbT9FgGnLmUq8w1Ts0-134">
          <mxGeometry width="50" height="50" relative="1" as="geometry">
            <mxPoint x="270" y="1910" as="sourcePoint" />
            <mxPoint x="430" y="1910" as="targetPoint" />
            <Array as="points">
              <mxPoint x="230" y="1740" />
            </Array>
          </mxGeometry>
        </mxCell>
        <mxCell id="nJXbT9FgGnLmUq8w1Ts0-136" value="Vector Store" style="rounded=1;whiteSpace=wrap;html=1;" vertex="1" parent="1">
          <mxGeometry x="710" y="1750" width="80" height="80" as="geometry" />
        </mxCell>
        <mxCell id="nJXbT9FgGnLmUq8w1Ts0-137" value="Embeddings Documents" style="rounded=1;whiteSpace=wrap;html=1;dashed=1;" vertex="1" parent="1">
          <mxGeometry x="830" y="1760" width="80" height="60" as="geometry" />
        </mxCell>
        <mxCell id="nJXbT9FgGnLmUq8w1Ts0-138" value="" style="endArrow=classic;html=1;rounded=0;dashed=1;" edge="1" parent="1" source="nJXbT9FgGnLmUq8w1Ts0-136" target="nJXbT9FgGnLmUq8w1Ts0-137">
          <mxGeometry width="50" height="50" relative="1" as="geometry">
            <mxPoint x="715" y="1620" as="sourcePoint" />
            <mxPoint x="715" y="1650" as="targetPoint" />
          </mxGeometry>
        </mxCell>
        <mxCell id="nJXbT9FgGnLmUq8w1Ts0-139" value="" style="endArrow=classic;html=1;rounded=0;exitX=1;exitY=0.5;exitDx=0;exitDy=0;entryX=0;entryY=0.5;entryDx=0;entryDy=0;" edge="1" parent="1" source="nJXbT9FgGnLmUq8w1Ts0-134" target="nJXbT9FgGnLmUq8w1Ts0-142">
          <mxGeometry width="50" height="50" relative="1" as="geometry">
            <mxPoint x="510" y="1875" as="sourcePoint" />
            <mxPoint x="530" y="1775" as="targetPoint" />
          </mxGeometry>
        </mxCell>
        <mxCell id="nJXbT9FgGnLmUq8w1Ts0-140" value="&lt;span style=&quot;background-color: rgb(251, 251, 251);&quot;&gt;prompt&lt;/span&gt;&lt;br style=&quot;background-color: rgb(251, 251, 251);&quot;&gt;&lt;span style=&quot;background-color: rgb(251, 251, 251);&quot;&gt;+ memory&lt;/span&gt;&lt;br style=&quot;background-color: rgb(251, 251, 251);&quot;&gt;&lt;span style=&quot;background-color: rgb(251, 251, 251);&quot;&gt;+ context&lt;br&gt;+ best fit document&amp;nbsp;&lt;/span&gt;" style="text;html=1;align=center;verticalAlign=middle;whiteSpace=wrap;rounded=0;" vertex="1" parent="1">
          <mxGeometry x="270" y="1850" width="150" height="30" as="geometry" />
        </mxCell>
        <mxCell id="nJXbT9FgGnLmUq8w1Ts0-141" value="prompt" style="text;html=1;align=center;verticalAlign=middle;whiteSpace=wrap;rounded=0;" vertex="1" parent="1">
          <mxGeometry x="590" y="1870" width="150" height="25" as="geometry" />
        </mxCell>
        <mxCell id="nJXbT9FgGnLmUq8w1Ts0-142" value="Service" style="rounded=1;whiteSpace=wrap;html=1;" vertex="1" parent="1">
          <mxGeometry x="555" y="1700" width="80" height="80" as="geometry" />
        </mxCell>
        <mxCell id="nJXbT9FgGnLmUq8w1Ts0-143" value="Embedding Model" style="rounded=1;whiteSpace=wrap;html=1;" vertex="1" parent="1">
          <mxGeometry x="710" y="1650" width="80" height="80" as="geometry" />
        </mxCell>
        <mxCell id="nJXbT9FgGnLmUq8w1Ts0-144" value="" style="endArrow=classic;html=1;rounded=0;" edge="1" parent="1" source="nJXbT9FgGnLmUq8w1Ts0-142" target="nJXbT9FgGnLmUq8w1Ts0-143">
          <mxGeometry width="50" height="50" relative="1" as="geometry">
            <mxPoint x="510" y="1750" as="sourcePoint" />
            <mxPoint x="565" y="1750" as="targetPoint" />
          </mxGeometry>
        </mxCell>
        <mxCell id="nJXbT9FgGnLmUq8w1Ts0-145" value="" style="endArrow=classic;html=1;rounded=0;" edge="1" parent="1" source="nJXbT9FgGnLmUq8w1Ts0-142" target="nJXbT9FgGnLmUq8w1Ts0-136">
          <mxGeometry width="50" height="50" relative="1" as="geometry">
            <mxPoint x="645" y="1742" as="sourcePoint" />
            <mxPoint x="720" y="1728" as="targetPoint" />
          </mxGeometry>
        </mxCell>
        <mxCell id="nJXbT9FgGnLmUq8w1Ts0-146" value="similarity search (embed (prompt))" style="text;html=1;align=center;verticalAlign=middle;whiteSpace=wrap;rounded=0;" vertex="1" parent="1">
          <mxGeometry x="440" y="1670" width="320" height="25" as="geometry" />
        </mxCell>
        <mxCell id="nJXbT9FgGnLmUq8w1Ts0-147" value="best fit document" style="text;html=1;align=center;verticalAlign=middle;whiteSpace=wrap;rounded=0;" vertex="1" parent="1">
          <mxGeometry x="250" y="1740" width="150" height="25" as="geometry" />
        </mxCell>
        <mxCell id="nJXbT9FgGnLmUq8w1Ts0-148" value="do" style="rounded=1;whiteSpace=wrap;html=1;fillColor=#dae8fc;strokeColor=#6c8ebf;" vertex="1" parent="1">
          <mxGeometry x="720" y="1970" width="80" height="80" as="geometry" />
        </mxCell>
        <mxCell id="nJXbT9FgGnLmUq8w1Ts0-149" value="attempt" style="text;html=1;align=center;verticalAlign=middle;whiteSpace=wrap;rounded=0;" vertex="1" parent="1">
          <mxGeometry x="590" y="1895" width="150" height="25" as="geometry" />
        </mxCell>
        <mxCell id="nJXbT9FgGnLmUq8w1Ts0-150" value="capabilities" style="rounded=1;whiteSpace=wrap;html=1;dashed=1;fillColor=#dae8fc;strokeColor=#6c8ebf;" vertex="1" parent="1">
          <mxGeometry x="830" y="1870" width="80" height="60" as="geometry" />
        </mxCell>
        <mxCell id="nJXbT9FgGnLmUq8w1Ts0-151" value="" style="endArrow=classic;html=1;rounded=0;dashed=1;" edge="1" parent="1">
          <mxGeometry width="50" height="50" relative="1" as="geometry">
            <mxPoint x="800" y="1900" as="sourcePoint" />
            <mxPoint x="830" y="1900" as="targetPoint" />
          </mxGeometry>
        </mxCell>
        <mxCell id="nJXbT9FgGnLmUq8w1Ts0-152" value="&lt;font&gt;anything&lt;/font&gt;" style="rounded=1;whiteSpace=wrap;html=1;dashed=1;fillColor=#dae8fc;strokeColor=#6c8ebf;" vertex="1" parent="1">
          <mxGeometry x="830" y="1980" width="80" height="60" as="geometry" />
        </mxCell>
        <mxCell id="nJXbT9FgGnLmUq8w1Ts0-153" value="" style="endArrow=classic;html=1;rounded=0;dashed=1;" edge="1" parent="1" source="nJXbT9FgGnLmUq8w1Ts0-148" target="nJXbT9FgGnLmUq8w1Ts0-152">
          <mxGeometry width="50" height="50" relative="1" as="geometry">
            <mxPoint x="815" y="2000" as="sourcePoint" />
            <mxPoint x="845" y="2000" as="targetPoint" />
          </mxGeometry>
        </mxCell>
        <mxCell id="nJXbT9FgGnLmUq8w1Ts0-154" value="" style="endArrow=classic;html=1;rounded=0;" edge="1" parent="1" source="nJXbT9FgGnLmUq8w1Ts0-120" target="nJXbT9FgGnLmUq8w1Ts0-148">
          <mxGeometry width="50" height="50" relative="1" as="geometry">
            <mxPoint x="635" y="1910" as="sourcePoint" />
            <mxPoint x="730" y="1910" as="targetPoint" />
          </mxGeometry>
        </mxCell>
        <mxCell id="nJXbT9FgGnLmUq8w1Ts0-155" value="" style="curved=1;endArrow=classic;html=1;rounded=0;" edge="1" parent="1" target="nJXbT9FgGnLmUq8w1Ts0-120">
          <mxGeometry width="50" height="50" relative="1" as="geometry">
            <mxPoint x="545" y="1970" as="sourcePoint" />
            <mxPoint x="650" y="2050" as="targetPoint" />
            <Array as="points">
              <mxPoint x="520" y="1960" />
              <mxPoint x="520" y="1940" />
            </Array>
          </mxGeometry>
        </mxCell>
      </root>
    </mxGraphModel>
  </diagram>
</mxfile>
